<svg version="1.1" xmlns="http://www.w3.org/2000/svg" viewBox="0 0 1980.8955131768475 1115.1409172347066" width="1980.8955131768475" height="1115.1409172347066">
  <!-- svg-source:excalidraw -->
  
  <defs>
    <style class="style-fonts">
      @font-face {
        font-family: "Virgil";
        src: url("https://excalidraw.com/Virgil.woff2");
      }
      @font-face {
        font-family: "Cascadia";
        src: url("https://excalidraw.com/Cascadia.woff2");
      }
      @font-face {
        font-family: "Assistant";
        src: url("https://excalidraw.com/Assistant-Regular.woff2");
      }
    </style>
    
  </defs>
  <rect x="0" y="0" width="1980.8955131768475" height="1115.1409172347066" fill="#ffffff"></rect><g transform="translate(635.6017416668878 710.2481246784731) rotate(0 51.1376953125 11.5)"><text x="51.1376953125" y="18.400390625" font-family="Helvetica, Segoe UI Emoji" font-size="20px" fill="#1e1e1e" text-anchor="middle" style="white-space: pre;" direction="ltr" dominant-baseline="alphabetic">PerpRouter</text></g><g stroke-linecap="round" transform="translate(611.5101645294749 688.9337880272941) rotate(0 80.46919055726266 33.26856270213534)"><path d="M16.63 0 C47.81 2.33, 77.25 -1.09, 144.3 0 M16.63 0 C62.16 0.29, 107.05 1.72, 144.3 0 M144.3 0 C156.32 -0.97, 160.85 6.93, 160.94 16.63 M144.3 0 C154.34 -0.17, 159.9 6.8, 160.94 16.63 M160.94 16.63 C159.86 28.31, 160.25 39.17, 160.94 49.9 M160.94 16.63 C160.78 27.2, 161.99 37.51, 160.94 49.9 M160.94 49.9 C162.77 61.15, 156.14 68.27, 144.3 66.54 M160.94 49.9 C159.33 59.62, 153.79 67.76, 144.3 66.54 M144.3 66.54 C117.26 68.23, 90.32 67.32, 16.63 66.54 M144.3 66.54 C97.34 66.58, 48.56 66.85, 16.63 66.54 M16.63 66.54 C3.61 65.72, 1.22 60.83, 0 49.9 M16.63 66.54 C4.8 64.96, 1.91 60.82, 0 49.9 M0 49.9 C-0.01 39.27, -1.02 31.14, 0 16.63 M0 49.9 C-0.37 42.75, -0.51 34.47, 0 16.63 M0 16.63 C-1.93 7.31, 4.36 -0.82, 16.63 0 M0 16.63 C-0.42 7.64, 6.88 -2.13, 16.63 0" stroke="#1e1e1e" stroke-width="1" fill="none"></path></g><g stroke-linecap="round" transform="translate(429.73492008921176 958.5604567123218) rotate(0 133.86797270018428 28)"><path d="M14 0 C64.7 -1.67, 114.79 -0.34, 253.74 0 M14 0 C62.7 1.5, 112 2.3, 253.74 0 M253.74 0 C261.51 0.21, 268.98 5.25, 267.74 14 M253.74 0 C262.91 1.79, 268.64 5.57, 267.74 14 M267.74 14 C267.58 21.23, 268 26.4, 267.74 42 M267.74 14 C268.67 19.1, 268.16 25.81, 267.74 42 M267.74 42 C266.51 51.31, 264.27 57.09, 253.74 56 M267.74 42 C268.29 53.07, 263.57 55.06, 253.74 56 M253.74 56 C190.27 54.21, 124.98 54.45, 14 56 M253.74 56 C201.12 58.07, 146.74 57.55, 14 56 M14 56 C3.37 55.95, 1.51 50.41, 0 42 M14 56 C6.66 57.44, -0.08 51.64, 0 42 M0 42 C-0.24 35.71, -1.67 27.49, 0 14 M0 42 C-0.58 33.87, -0.8 25.16, 0 14 M0 14 C-0.81 6.56, 5.54 1.43, 14 0 M0 14 C-0.14 6.9, 3.44 -1.58, 14 0" stroke="#1e1e1e" stroke-width="1" fill="none"></path></g><g transform="translate(454.1400021643958 975.0604567123218) rotate(0 109.462890625 11.5)"><text x="109.462890625" y="18.400390625" font-family="Helvetica, Segoe UI Emoji" font-size="20px" fill="#1e1e1e" text-anchor="middle" style="white-space: pre;" direction="ltr" dominant-baseline="alphabetic">perp market(ETH/FRAX)</text></g><g stroke-linecap="round" transform="translate(742.3807330167178 959.740928192831) rotate(0 121.53949649281208 28)"><path d="M14 0 C87.84 0.82, 161.57 -0.3, 229.08 0 M14 0 C75.79 -0.64, 136.94 -1.7, 229.08 0 M229.08 0 C237.09 0.29, 241.99 6.29, 243.08 14 M229.08 0 C238.95 -1.94, 243.11 4.28, 243.08 14 M243.08 14 C242.39 20.68, 243.31 23.82, 243.08 42 M243.08 14 C243.86 20.92, 244.06 28.68, 243.08 42 M243.08 42 C242.78 50.87, 239.35 54.72, 229.08 56 M243.08 42 C244.01 51.62, 239.96 57.11, 229.08 56 M229.08 56 C151.84 55.97, 77.98 54.52, 14 56 M229.08 56 C149.84 56.44, 71.08 56.31, 14 56 M14 56 C6.46 56.37, -1.72 50.48, 0 42 M14 56 C6.29 55.43, 0.13 52.82, 0 42 M0 42 C-1.12 36.97, 0.06 27.73, 0 14 M0 42 C0.98 32.55, -0.2 21.92, 0 14 M0 14 C-0.01 4.39, 4.28 1.83, 14 0 M0 14 C-0.27 5.63, 4.53 1.18, 14 0" stroke="#1e1e1e" stroke-width="1" fill="none"></path></g><g transform="translate(754.4475732595299 976.240928192831) rotate(0 109.47265625 11.5)"><text x="109.47265625" y="18.400390625" font-family="Helvetica, Segoe UI Emoji" font-size="20px" fill="#1e1e1e" text-anchor="middle" style="white-space: pre;" direction="ltr" dominant-baseline="alphabetic">perp market(SOL/FRAX)</text></g><g stroke-linecap="round"><g transform="translate(671.0447514279749 756.4709134315648) rotate(0 -55.26552381448141 100.54477164037849)"><path d="M0.89 0.04 C-17.4 33.52, -92.38 167.39, -110.8 200.83 M-0.1 -0.98 C-18.48 32.68, -93.58 168.43, -111.9 202.24" stroke="#e03131" stroke-width="1" fill="none"></path></g><g transform="translate(671.0447514279749 756.4709134315648) rotate(0 -55.26552381448141 100.54477164037849)"><path d="M-108.1 177.53 C-108.83 182.36, -110.14 189.49, -111.9 202.24 M-108.1 177.53 C-109.61 184.38, -109.34 189.96, -111.9 202.24" stroke="#e03131" stroke-width="1" fill="none"></path></g><g transform="translate(671.0447514279749 756.4709134315648) rotate(0 -55.26552381448141 100.54477164037849)"><path d="M-93.1 185.75 C-97.03 188.94, -101.53 194.32, -111.9 202.24 M-93.1 185.75 C-98.69 190.42, -102.47 193.78, -111.9 202.24" stroke="#e03131" stroke-width="1" fill="none"></path></g></g><mask></mask><g stroke-linecap="round"><g transform="translate(673.2450392959549 756.864766509571) rotate(0 98.61587848111958 99.28297429681152)"><path d="M0.86 0.88 C33.74 33.9, 164.16 165.74, 196.8 198.61 M-0.15 0.3 C32.58 33.47, 162.98 167.02, 195.63 200.17" stroke="#e03131" stroke-width="1" fill="none"></path></g><g transform="translate(673.2450392959549 756.864766509571) rotate(0 98.61587848111958 99.28297429681152)"><path d="M173.08 189.38 C180.46 191.31, 184.93 194, 195.63 200.17 M173.08 189.38 C178.59 193.06, 184.75 195.43, 195.63 200.17" stroke="#e03131" stroke-width="1" fill="none"></path></g><g transform="translate(673.2450392959549 756.864766509571) rotate(0 98.61587848111958 99.28297429681152)"><path d="M185.29 177.41 C189.54 182.54, 190.84 188.35, 195.63 200.17 M185.29 177.41 C187.54 184.28, 190.49 189.79, 195.63 200.17" stroke="#e03131" stroke-width="1" fill="none"></path></g></g><mask></mask><g stroke-linecap="round" transform="translate(153.88754934478948 781.6508676194316) rotate(0 124.14000194924756 32.71357747321355)"><path d="M16.36 0 C77.54 0.61, 139.15 0.18, 231.92 0 M16.36 0 C86.65 1.75, 154.94 1.5, 231.92 0 M231.92 0 C243.61 1.54, 249.41 5.58, 248.28 16.36 M231.92 0 C242 0.65, 246.35 6.33, 248.28 16.36 M248.28 16.36 C246.35 25.47, 246.69 34.16, 248.28 49.07 M248.28 16.36 C248.36 26.76, 248.75 38.32, 248.28 49.07 M248.28 49.07 C249.76 61.5, 242.38 65.04, 231.92 65.43 M248.28 49.07 C247.66 57.84, 241.06 64.02, 231.92 65.43 M231.92 65.43 C179.55 66.08, 127.67 67.54, 16.36 65.43 M231.92 65.43 C174.35 66.78, 115.25 65.68, 16.36 65.43 M16.36 65.43 C4.57 64.57, 1.83 58.55, 0 49.07 M16.36 65.43 C5.49 67.02, 0.84 58.14, 0 49.07 M0 49.07 C2.02 36.79, -1.73 28.09, 0 16.36 M0 49.07 C0.68 38.74, -0.26 29.6, 0 16.36 M0 16.36 C-0.47 3.56, 7.18 1.44, 16.36 0 M0 16.36 C-0.1 6.86, 5.89 1.03, 16.36 0" stroke="#1e1e1e" stroke-width="1" fill="none"></path></g><g stroke-linecap="round" transform="translate(82.99934341802282 98.13400947052196) rotate(0 92.05882708172498 38.305134947573265)"><path d="M19.15 0 C57.76 -0.31, 94.2 1.85, 164.97 0 M19.15 0 C51.08 -2.09, 84.43 -1.61, 164.97 0 M164.97 0 C177.47 0.46, 182.58 5.87, 184.12 19.15 M164.97 0 C177.2 -1.5, 184.15 4.19, 184.12 19.15 M184.12 19.15 C185.14 32.73, 185.74 40.66, 184.12 57.46 M184.12 19.15 C184.28 30.57, 184.55 42.63, 184.12 57.46 M184.12 57.46 C182.72 71.93, 179.61 75.07, 164.97 76.61 M184.12 57.46 C185.67 68.92, 179.89 75.49, 164.97 76.61 M164.97 76.61 C133.45 77.02, 105.27 77.53, 19.15 76.61 M164.97 76.61 C127.68 75.9, 90.68 75.98, 19.15 76.61 M19.15 76.61 C8.19 75.08, 1.96 71.15, 0 57.46 M19.15 76.61 C6.01 75.4, -0.96 68.16, 0 57.46 M0 57.46 C0.19 45.9, 0.04 39.69, 0 19.15 M0 57.46 C-0.17 47.79, -0.34 37.28, 0 19.15 M0 19.15 C-1.89 7.08, 6.46 -1.1, 19.15 0 M0 19.15 C1.92 5.06, 6.41 -0.92, 19.15 0" stroke="#1e1e1e" stroke-width="1" fill="none"></path></g><g transform="translate(129.48199862474758 124.93914441809511) rotate(0 45.576171875 11.5)"><text x="45.576171875" y="18.400390625" font-family="Helvetica, Segoe UI Emoji" font-size="20px" fill="#1e1e1e" text-anchor="middle" style="white-space: pre;" direction="ltr" dominant-baseline="alphabetic">PriceFeed</text></g><g transform="translate(173.5838208694954 800.8098440042621) rotate(0 102.28515625 11.5)"><text x="102.28515625" y="18.400390625" font-family="Helvetica, Segoe UI Emoji" font-size="20px" fill="#1e1e1e" text-anchor="middle" style="white-space: pre;" direction="ltr" dominant-baseline="alphabetic">Funding Rate Manager</text></g><g stroke-linecap="round" transform="translate(337.6698047437503 94.29980027237866) rotate(0 138.86392645653268 30.26654966872809)"><path d="M15.13 0 C79.16 3.04, 142.23 1.46, 262.59 0 M15.13 0 C69.44 -1.74, 124.29 -1.6, 262.59 0 M262.59 0 C270.7 -0.89, 277.42 5.98, 277.73 15.13 M262.59 0 C270.43 -0.14, 278.8 2.96, 277.73 15.13 M277.73 15.13 C276.15 28.34, 278.2 38.09, 277.73 45.4 M277.73 15.13 C277.2 26.91, 278.21 38.73, 277.73 45.4 M277.73 45.4 C277.72 56.36, 272.73 58.92, 262.59 60.53 M277.73 45.4 C279.44 57.76, 273.58 58.44, 262.59 60.53 M262.59 60.53 C181.07 57.49, 97.73 58.59, 15.13 60.53 M262.59 60.53 C200.53 61.96, 137.28 60.81, 15.13 60.53 M15.13 60.53 C6.41 61.34, -1.82 54.21, 0 45.4 M15.13 60.53 C4.5 60.76, 0.06 54.91, 0 45.4 M0 45.4 C-1.26 36.82, -0.29 30.02, 0 15.13 M0 45.4 C-0.23 35.38, -0.68 25.24, 0 15.13 M0 15.13 C0.86 3.55, 4.75 -1.69, 15.13 0 M0 15.13 C-0.14 4.44, 7.06 1.66, 15.13 0" stroke="#1e1e1e" stroke-width="1" fill="none"></path></g><g transform="translate(350.2581464838604 112.84254153837901) rotate(0 122.83646054434166 10.633455797185775)"><text x="122.83646054434172" y="17.013890466251254" font-family="Helvetica, Segoe UI Emoji" font-size="18.492966603801385px" fill="#1e1e1e" text-anchor="middle" style="white-space: pre;" direction="ltr" dominant-baseline="alphabetic">Concentrated Liquidity market</text></g><g stroke-linecap="round"><g transform="translate(475.4931881505581 156.07834575068887) rotate(0 -104.43076929703398 311.4214464621569)"><path d="M-0.67 0.37 C-35.56 104, -173.77 519.01, -208.44 622.94 M1.18 -0.48 C-33.91 103.88, -174.08 520.75, -209.17 624.53" stroke="#2f9e44" stroke-width="1" fill="none"></path></g><g transform="translate(475.4931881505581 156.07834575068887) rotate(0 -104.43076929703398 311.4214464621569)"><path d="M-209.77 599.54 C-208.7 609.54, -208.92 618.42, -209.17 624.53 M-209.77 599.54 C-208.92 608.82, -209.54 619.64, -209.17 624.53" stroke="#2f9e44" stroke-width="1" fill="none"></path></g><g transform="translate(475.4931881505581 156.07834575068887) rotate(0 -104.43076929703398 311.4214464621569)"><path d="M-193.56 605 C-198.57 612.88, -204.82 619.73, -209.17 624.53 M-193.56 605 C-199.07 612.28, -206.07 620.95, -209.17 624.53" stroke="#2f9e44" stroke-width="1" fill="none"></path></g></g><mask></mask><g stroke-linecap="round"><g transform="translate(161.96746289330667 175.74452321673107) rotate(0 67.95362636522555 302.4531722013503)"><path d="M0.75 -1.02 C23.52 99.96, 112.99 503.58, 135.52 604.73 M-0.31 1.06 C22.36 102.33, 111.79 505.67, 134.36 606.17" stroke="#2f9e44" stroke-width="1" fill="none"></path></g><g transform="translate(161.96746289330667 175.74452321673107) rotate(0 67.95362636522555 302.4531722013503)"><path d="M120.91 585.11 C121.8 588.76, 126.01 593.76, 134.36 606.17 M120.91 585.11 C126.8 592.55, 131.43 601.88, 134.36 606.17" stroke="#2f9e44" stroke-width="1" fill="none"></path></g><g transform="translate(161.96746289330667 175.74452321673107) rotate(0 67.95362636522555 302.4531722013503)"><path d="M137.6 581.38 C134.98 585.91, 135.71 591.7, 134.36 606.17 M137.6 581.38 C137.09 590.2, 135.33 600.95, 134.36 606.17" stroke="#2f9e44" stroke-width="1" fill="none"></path></g></g><mask></mask><g stroke-linecap="round"><g transform="translate(403.16782230147146 818.2136232016891) rotate(0 102.31590164795739 -45.28729378106158)"><path d="M-1.15 0.02 C32.92 -15.03, 171.14 -75.48, 205.29 -90.69 M0.44 -1.02 C34.33 -15.83, 170.4 -74.34, 204.69 -89.21" stroke="#e03131" stroke-width="1" fill="none"></path></g><g transform="translate(403.16782230147146 818.2136232016891) rotate(0 102.31590164795739 -45.28729378106158)"><path d="M186.51 -72.05 C193.39 -77.18, 199.95 -86.17, 204.69 -89.21 M186.51 -72.05 C191.35 -76.49, 194.73 -81.6, 204.69 -89.21" stroke="#e03131" stroke-width="1" fill="none"></path></g><g transform="translate(403.16782230147146 818.2136232016891) rotate(0 102.31590164795739 -45.28729378106158)"><path d="M179.73 -87.75 C189.09 -86.95, 198.18 -90.09, 204.69 -89.21 M179.73 -87.75 C186.22 -88.38, 191.28 -89.62, 204.69 -89.21" stroke="#e03131" stroke-width="1" fill="none"></path></g></g><mask></mask><g stroke-linecap="round" transform="translate(1229.6231110673748 362.8122823351098) rotate(0 92.04595254361027 28)"><path d="M14 0 C47.46 -1.3, 80.14 -0.76, 170.09 0 M14 0 C48.6 -0.64, 83.01 -0.19, 170.09 0 M170.09 0 C181.18 1.49, 183.3 6.42, 184.09 14 M170.09 0 C179.88 1.24, 183.17 4.32, 184.09 14 M184.09 14 C184.45 22.79, 182.62 27.93, 184.09 42 M184.09 14 C183.52 23.33, 184.21 31.6, 184.09 42 M184.09 42 C183.83 49.98, 178.69 57.91, 170.09 56 M184.09 42 C185.5 50.4, 179.56 54.88, 170.09 56 M170.09 56 C117.09 56.52, 65.4 57.71, 14 56 M170.09 56 C108.51 55.55, 49.41 54.74, 14 56 M14 56 C4.35 56.42, 1.65 52.73, 0 42 M14 56 C3.77 55.85, 1.18 51.46, 0 42 M0 42 C1.11 31.37, -1.17 24.87, 0 14 M0 42 C-0.94 33.55, -1.03 24.76, 0 14 M0 14 C-1.69 5.06, 2.67 -1.43, 14 0 M0 14 C0.09 2.42, 3.43 0.31, 14 0" stroke="#1e1e1e" stroke-width="1" fill="none"></path></g><g transform="translate(1243.885860485985 379.3122823351098) rotate(0 77.783203125 11.5)"><text x="77.783203125" y="18.400390625" font-family="Helvetica, Segoe UI Emoji" font-size="20px" fill="#1e1e1e" text-anchor="middle" style="white-space: pre;" direction="ltr" dominant-baseline="alphabetic">vFrax(virtual frax)</text></g><g mask="url(#mask-UlKRYeCKRWOtU0Pi0NXod)" stroke-linecap="round"><g transform="translate(775.0749262122786 722.9218502471532) rotate(0 136.1556828199665 -191.78395481634124)"><path d="M0.68 0 C46.25 -63.99, 227.4 -320.73, 272.75 -384.5 M-0.43 -1.05 C45.08 -64.86, 226.59 -319.55, 272.03 -383.45" stroke="#1e1e1e" stroke-width="1" fill="none"></path></g><g transform="translate(775.0749262122786 722.9218502471532) rotate(0 136.1556828199665 -191.78395481634124)"><path d="M265.37 -359.35 C267.1 -364.51, 267.17 -370.38, 272.03 -383.45 M265.37 -359.35 C268.35 -367.59, 270.51 -377.28, 272.03 -383.45" stroke="#1e1e1e" stroke-width="1" fill="none"></path></g><g transform="translate(775.0749262122786 722.9218502471532) rotate(0 136.1556828199665 -191.78395481634124)"><path d="M251.44 -369.27 C256.5 -372.1, 259.96 -375.56, 272.03 -383.45 M251.44 -369.27 C259.73 -373.63, 267.22 -379.53, 272.03 -383.45" stroke="#1e1e1e" stroke-width="1" fill="none"></path></g></g><mask id="mask-UlKRYeCKRWOtU0Pi0NXod"><rect x="0" y="0" fill="#fff" width="1147.3862918522116" height="1206.4897598798357"></rect><rect x="880.664202782245" y="519.637895430812" fill="#000" width="61.1328125" height="23" opacity="1"></rect></mask><g transform="translate(880.664202782245 519.637895430812) rotate(0 30.569529297696477 11.035630727931789)"><text x="30.56640625" y="18.400390625" font-family="Helvetica, Segoe UI Emoji" font-size="20px" fill="#1e1e1e" text-anchor="middle" style="white-space: pre;" direction="ltr" dominant-baseline="alphabetic">margin</text></g><g stroke-linecap="round" transform="translate(1013.6093664717291 300.9619035145229) rotate(0 60.98749997915979 16.5)"><path d="M8.25 0 C36.71 0.22, 61.41 1.81, 113.72 0 M8.25 0 C36.59 0.88, 64.79 1.48, 113.72 0 M113.72 0 C118.73 0.91, 121.38 1.88, 121.97 8.25 M113.72 0 C117.77 -1.86, 122.65 1.46, 121.97 8.25 M121.97 8.25 C121.31 13.61, 120.75 14.31, 121.97 24.75 M121.97 8.25 C121.79 12.35, 122.66 14.98, 121.97 24.75 M121.97 24.75 C120.87 29.25, 118.94 32.54, 113.72 33 M121.97 24.75 C122.55 28.7, 117.64 30.89, 113.72 33 M113.72 33 C77.87 34.32, 40.82 32.71, 8.25 33 M113.72 33 C91.79 33.43, 69.1 34.73, 8.25 33 M8.25 33 C1.04 33.91, -0.73 31.36, 0 24.75 M8.25 33 C2.46 31.12, -1.2 32.07, 0 24.75 M0 24.75 C0.9 22.68, -0.43 18.73, 0 8.25 M0 24.75 C0 19.6, 0.2 15.04, 0 8.25 M0 8.25 C-1.21 1.79, 0.99 -0.2, 8.25 0 M0 8.25 C1.08 1.45, 4.5 -0.4, 8.25 0" stroke="#1e1e1e" stroke-width="1" fill="none"></path></g><g transform="translate(1052.365421138389 305.9619035145229) rotate(0 22.2314453125 11.5)"><text x="22.2314453125" y="18.400390625" font-family="Helvetica, Segoe UI Emoji" font-size="20px" fill="#1e1e1e" text-anchor="middle" style="white-space: pre;" direction="ltr" dominant-baseline="alphabetic">$frax</text></g><g stroke-linecap="round" transform="translate(104.87684209352528 424.2436508179667) rotate(0 517.1646473504334 340.4486332083699)"><path d="M32 0 C326.16 0.73, 620.58 0.63, 1002.33 0 M32 0 C326.97 -1.59, 621.93 -1.91, 1002.33 0 M1002.33 0 C1023.33 -1.09, 1032.4 8.96, 1034.33 32 M1002.33 0 C1022.4 -0.23, 1036.34 9.82, 1034.33 32 M1034.33 32 C1033.45 212.6, 1034.16 393.69, 1034.33 648.9 M1034.33 32 C1035.37 267.22, 1035.17 502.05, 1034.33 648.9 M1034.33 648.9 C1035.02 669.28, 1022.02 680.8, 1002.33 680.9 M1034.33 648.9 C1036.48 669.07, 1024.35 680.8, 1002.33 680.9 M1002.33 680.9 C714.81 677.81, 426.36 677.45, 32 680.9 M1002.33 680.9 C760.27 682.29, 517.95 682.88, 32 680.9 M32 680.9 C12.35 682.39, 0.83 671.13, 0 648.9 M32 680.9 C8.63 678.79, 0.61 670.51, 0 648.9 M0 648.9 C-1.04 505.24, -0.39 362.76, 0 32 M0 648.9 C2.12 501.71, 2.18 354.93, 0 32 M0 32 C-1.93 9.94, 9.81 -1.08, 32 0 M0 32 C-0.3 11.52, 12.01 0.7, 32 0" stroke="#1e1e1e" stroke-width="1" fill="none"></path></g><g mask="url(#mask-MBE8WF1i74Blbf8alhDAu)" stroke-linecap="round"><g transform="translate(777.0107828508169 738.4026662494966) rotate(0 274.7350107322776 -131.70548640733762)"><path d="M-0.74 -0.06 C51.96 8.09, 223.62 100.57, 315.43 48.49 C407.24 -3.59, 511.21 -252.45, 550.13 -312.54 M1.08 -1.13 C54.22 7.17, 226.25 101.77, 317.69 49.51 C409.13 -2.75, 511.17 -254.09, 549.71 -314.7" stroke="#1e1e1e" stroke-width="1" fill="none"></path></g><g transform="translate(777.0107828508169 738.4026662494966) rotate(0 274.7350107322776 -131.70548640733762)"><path d="M546.43 -289.92 C547.2 -297.24, 546.44 -300.61, 549.71 -314.7 M546.43 -289.92 C546.67 -297.68, 549.29 -305.31, 549.71 -314.7" stroke="#1e1e1e" stroke-width="1" fill="none"></path></g><g transform="translate(777.0107828508169 738.4026662494966) rotate(0 274.7350107322776 -131.70548640733762)"><path d="M531.26 -297.83 C535.62 -303.17, 538.48 -304.66, 549.71 -314.7 M531.26 -297.83 C536.45 -303.1, 544.05 -308.13, 549.71 -314.7" stroke="#1e1e1e" stroke-width="1" fill="none"></path></g></g><mask id="mask-MBE8WF1i74Blbf8alhDAu"><rect x="0" y="0" fill="#fff" width="1426.480804315372" height="1200.7514207157017"></rect><rect x="1062.7328708850694" y="776.3715570752615" fill="#000" width="61.1328125" height="23" opacity="1"></rect></mask><g transform="translate(1062.7328708850694 776.3715570752615) rotate(0 -11.024861024926963 -162.7345131163945)"><text x="30.56640625" y="18.400390625" font-family="Helvetica, Segoe UI Emoji" font-size="20px" fill="#1e1e1e" text-anchor="middle" style="white-space: pre;" direction="ltr" dominant-baseline="alphabetic">margin</text></g><g stroke-linecap="round" transform="translate(1192.0495034689748 265.3973991752898) rotate(0 266.9321446647457 204.0832541951678)"><path d="M32 0 C161.63 -1.1, 289.67 -0.51, 501.86 0 M32 0 C181.06 -2.02, 329.97 -1.64, 501.86 0 M501.86 0 C523.77 -1.46, 533.96 9.03, 533.86 32 M501.86 0 C524.87 0.84, 534.09 12.49, 533.86 32 M533.86 32 C532.66 115.55, 532.97 199.66, 533.86 376.17 M533.86 32 C533.48 146.58, 533.32 261.98, 533.86 376.17 M533.86 376.17 C533.37 398.54, 521.25 406.82, 501.86 408.17 M533.86 376.17 C533.36 398.88, 525.32 407.01, 501.86 408.17 M501.86 408.17 C314.22 407.39, 128.2 407.84, 32 408.17 M501.86 408.17 C396.08 409.97, 290.28 409.71, 32 408.17 M32 408.17 C9.98 406.5, 0.23 396.5, 0 376.17 M32 408.17 C11.94 408.98, -0.7 399.42, 0 376.17 M0 376.17 C1.44 305.12, 2.93 233.82, 0 32 M0 376.17 C0.4 265.64, 0.91 155.7, 0 32 M0 32 C0.87 10.45, 9.4 -0.57, 32 0 M0 32 C-0.96 11.93, 9.23 -1.73, 32 0" stroke="#1e1e1e" stroke-width="1" fill="none"></path></g><g transform="translate(1388.5157032887016 229.79025071401247) rotate(0 95.5810546875 11.5)"><text x="95.5810546875" y="18.400390625" font-family="Helvetica, Segoe UI Emoji" font-size="20px" fill="#1e1e1e" text-anchor="middle" style="white-space: pre;" direction="ltr" dominant-baseline="alphabetic">Multicollateral system</text></g><g transform="translate(443.43221800162655 389.0432454278257) rotate(0 96.71875 11.5)"><text x="96.71875" y="18.400390625" font-family="Helvetica, Segoe UI Emoji" font-size="20px" fill="#1e1e1e" text-anchor="middle" style="white-space: pre;" direction="ltr" dominant-baseline="alphabetic">Perpetual futures flow</text></g><g stroke-linecap="round" transform="translate(10 53.1488257687422) rotate(0 321.2805953650093 86.55079762746539)"><path d="M32 0 C177.25 0.4, 321.17 1.13, 610.56 0 M32 0 C239.76 -0.15, 447.92 0.26, 610.56 0 M610.56 0 C633.65 -0.81, 641.24 10.44, 642.56 32 M610.56 0 C632.84 0.24, 641.67 9.72, 642.56 32 M642.56 32 C642.03 72.66, 641.55 110.92, 642.56 141.1 M642.56 32 C641.59 54.91, 641.12 78.74, 642.56 141.1 M642.56 141.1 C641.43 163.94, 631.81 172.4, 610.56 173.1 M642.56 141.1 C643.63 162.1, 631.68 172.52, 610.56 173.1 M610.56 173.1 C453.14 172.8, 295.55 173.65, 32 173.1 M610.56 173.1 C490.44 170.74, 370.5 170.52, 32 173.1 M32 173.1 C9.37 172.68, 0.58 162.01, 0 141.1 M32 173.1 C11.13 173.95, 0.54 163.93, 0 141.1 M0 141.1 C1.39 113.93, 0.6 88.69, 0 32 M0 141.1 C0.39 119.28, 0.23 96.57, 0 32 M0 32 C-0.91 9.46, 12.35 -1.51, 32 0 M0 32 C-1.64 12.37, 10.7 1.06, 32 0" stroke="#1e1e1e" stroke-width="1" fill="none"></path></g><g transform="translate(190.80499933050442 28.864847407719935) rotate(0 63.9013671875 11.5)"><text x="63.9013671875" y="18.400390625" font-family="Helvetica, Segoe UI Emoji" font-size="20px" fill="#1e1e1e" text-anchor="middle" style="white-space: pre;" direction="ltr" dominant-baseline="alphabetic">Oracle system</text></g><g transform="translate(331.73320530529736 10) rotate(0 185.6298828125 11.5)"><text x="185.6298828125" y="18.400390625" font-family="Helvetica, Segoe UI Emoji" font-size="20px" fill="#1e1e1e" text-anchor="middle" style="white-space: pre;" direction="ltr" dominant-baseline="alphabetic">running a CLAMM for price discovery also</text></g><g stroke-linecap="round" transform="translate(1441.1965508997143 516.9247517961468) rotate(0 84.88800479527106 23.74735072133865)"><path d="M11.87 0 C68.12 0.25, 122.99 -0.47, 157.9 0 M11.87 0 C70.25 -0.2, 126.87 -0.54, 157.9 0 M157.9 0 C166.14 -0.89, 169.24 3.01, 169.78 11.87 M157.9 0 C165.27 0.58, 168.15 6.03, 169.78 11.87 M169.78 11.87 C170.66 21.11, 169.78 30.03, 169.78 35.62 M169.78 11.87 C170.19 21.6, 169.19 29.01, 169.78 35.62 M169.78 35.62 C168.55 41.95, 165.16 47.16, 157.9 47.49 M169.78 35.62 C170.57 44.68, 166.34 48.79, 157.9 47.49 M157.9 47.49 C104.27 49.18, 52.87 47.1, 11.87 47.49 M157.9 47.49 C101.29 46.98, 44.98 47.58, 11.87 47.49 M11.87 47.49 C4.47 48.75, -0.81 43.36, 0 35.62 M11.87 47.49 C3.12 47.79, 1.72 42.47, 0 35.62 M0 35.62 C-1.37 29.09, -1.9 19.64, 0 11.87 M0 35.62 C0.61 27.83, 0.92 18.12, 0 11.87 M0 11.87 C-1.21 5.21, 2.54 1.47, 11.87 0 M0 11.87 C-1.89 2.06, 3.41 1.9, 11.87 0" stroke="#1e1e1e" stroke-width="1" fill="none"></path></g><g transform="translate(1462.1685400699853 529.1721025174854) rotate(0 63.916015625 11.5)"><text x="63.916015625" y="18.400390625" font-family="Helvetica, Segoe UI Emoji" font-size="20px" fill="#1e1e1e" text-anchor="middle" style="white-space: pre;" direction="ltr" dominant-baseline="alphabetic">vfrax manager</text></g><g mask="url(#mask-O2CyeIxXipYhm2AcPyLwb)" stroke-linecap="round"><g transform="translate(1461.6973784348413 509.26090753676056) rotate(0 -28.845581928004435 -44.01479149942344)"><path d="M1.11 1.09 C-8.39 -13.74, -48.36 -73.38, -58.23 -88.4 M0.24 0.62 C-9.37 -14.09, -49.58 -72.25, -59.46 -87.06" stroke="#1e1e1e" stroke-width="1" fill="none"></path></g><g transform="translate(1461.6973784348413 509.26090753676056) rotate(0 -28.845581928004435 -44.01479149942344)"><path d="M-39.18 -72.45 C-41.5 -76.09, -48.02 -78.78, -59.46 -87.06 M-39.18 -72.45 C-43.59 -74.99, -48.71 -78.97, -59.46 -87.06" stroke="#1e1e1e" stroke-width="1" fill="none"></path></g><g transform="translate(1461.6973784348413 509.26090753676056) rotate(0 -28.845581928004435 -44.01479149942344)"><path d="M-53.32 -62.83 C-52.84 -68.54, -56.52 -73.16, -59.46 -87.06 M-53.32 -62.83 C-54.59 -67.32, -56.66 -73.38, -59.46 -87.06" stroke="#1e1e1e" stroke-width="1" fill="none"></path></g></g><mask id="mask-O2CyeIxXipYhm2AcPyLwb"><rect x="0" y="0" fill="#fff" width="1619.3885422908502" height="697.2904905356074"></rect><rect x="1402.2853902568368" y="453.74611603733706" fill="#000" width="61.1328125" height="23" opacity="1"></rect></mask><g transform="translate(1402.2853902568368 453.74611603733706) rotate(0 30.238688550703273 11.85851619727913)"><text x="30.56640625" y="18.400390625" font-family="Helvetica, Segoe UI Emoji" font-size="20px" fill="#1e1e1e" text-anchor="middle" style="white-space: pre;" direction="ltr" dominant-baseline="alphabetic">borrow</text></g><g mask="url(#mask-yEruLKsEbdt139q3PA3XR)" stroke-linecap="round"><g transform="translate(1324.3700274966714 422.07143776878684) rotate(0 57.0264219107778 65.55018168408498)"><path d="M0.57 0.43 C19.78 22.37, 96.16 109.56, 115.18 131.32 M-0.59 -0.4 C18.57 21.19, 95.69 107.2, 114.82 129.31" stroke="#1e1e1e" stroke-width="1" fill="none"></path></g><g transform="translate(1324.3700274966714 422.07143776878684) rotate(0 57.0264219107778 65.55018168408498)"><path d="M92.86 117.36 C99.93 122.61, 105.99 125.22, 114.82 129.31 M92.86 117.36 C99.95 120.44, 105.69 123.89, 114.82 129.31" stroke="#1e1e1e" stroke-width="1" fill="none"></path></g><g transform="translate(1324.3700274966714 422.07143776878684) rotate(0 57.0264219107778 65.55018168408498)"><path d="M105.68 106.04 C108.98 114.65, 111.3 120.56, 114.82 129.31 M105.68 106.04 C109.05 112.4, 111.05 119.16, 114.82 129.31" stroke="#1e1e1e" stroke-width="1" fill="none"></path></g></g><mask id="mask-yEruLKsEbdt139q3PA3XR"><rect x="0" y="0" fill="#fff" width="1538.422871318227" height="653.1718011369568"></rect><rect x="1356.3818009699492" y="476.12161945287176" fill="#000" width="50.029296875" height="23" opacity="1"></rect></mask><g transform="translate(1356.3818009699492 476.12161945287176) rotate(0 25.280818226151155 11.4118679805473)"><text x="25.0146484375" y="18.400390625" font-family="Helvetica, Segoe UI Emoji" font-size="20px" fill="#1e1e1e" text-anchor="middle" style="white-space: pre;" direction="ltr" dominant-baseline="alphabetic">repay</text></g><g stroke-linecap="round" transform="translate(1331.990490172244 865.1687437518138) rotate(0 67.62168111620997 72.76870078153746)"><path d="M32 0 C53.55 -1.14, 77.87 -0.83, 103.24 0 M32 0 C50.49 -0.42, 67.4 -0.69, 103.24 0 M103.24 0 C124.07 -0.44, 134.7 9.48, 135.24 32 M103.24 0 C126.16 -0.43, 135.39 9.39, 135.24 32 M135.24 32 C136.71 53.9, 136.83 78.99, 135.24 113.54 M135.24 32 C136.28 48.77, 136.64 65.79, 135.24 113.54 M135.24 113.54 C137.17 136.57, 122.63 145.89, 103.24 145.54 M135.24 113.54 C136.78 136.68, 123.59 146.33, 103.24 145.54 M103.24 145.54 C79.54 145.68, 53.68 145.55, 32 145.54 M103.24 145.54 C77.09 145.69, 52.87 145.2, 32 145.54 M32 145.54 C9.02 146.19, -0.32 135.82, 0 113.54 M32 145.54 C8.88 146.35, 0.07 136.18, 0 113.54 M0 113.54 C-2.1 94.03, -2.17 76.93, 0 32 M0 113.54 C-0.21 85.2, -0.37 58.35, 0 32 M0 32 C1.23 9.04, 11.24 0.42, 32 0 M0 32 C-0.11 9, 8.63 1.46, 32 0" stroke="#1e1e1e" stroke-width="1" fill="none"></path></g><g transform="translate(1360.6961556634542 891.9374445333513) rotate(0 38.916015625 46)"><text x="38.916015625" y="18.400390625" font-family="Helvetica, Segoe UI Emoji" font-size="20px" fill="#1e1e1e" text-anchor="middle" style="white-space: pre;" direction="ltr" dominant-baseline="alphabetic">sFrax</text><text x="38.916015625" y="41.400390625" font-family="Helvetica, Segoe UI Emoji" font-size="20px" fill="#1e1e1e" text-anchor="middle" style="white-space: pre;" direction="ltr" dominant-baseline="alphabetic">WETH</text><text x="38.916015625" y="64.400390625" font-family="Helvetica, Segoe UI Emoji" font-size="20px" fill="#1e1e1e" text-anchor="middle" style="white-space: pre;" direction="ltr" dominant-baseline="alphabetic">FXTL</text><text x="38.916015625" y="87.400390625" font-family="Helvetica, Segoe UI Emoji" font-size="20px" fill="#1e1e1e" text-anchor="middle" style="white-space: pre;" direction="ltr" dominant-baseline="alphabetic">CRV, etc</text></g><g mask="url(#mask-q4iTyORoy9q1NqhlpksQ0)" stroke-linecap="round"><g transform="translate(1398.6599478505766 858.0036410214657) rotate(0 47.831004334837985 -150.75250994274222)"><path d="M0.52 -0.37 C16.6 -50.8, 79.89 -252.66, 95.69 -302.68 M-0.67 -1.61 C15.32 -51.94, 78.92 -251.65, 94.75 -301.76" stroke="#1e1e1e" stroke-width="1" fill="none"></path></g><g transform="translate(1398.6599478505766 858.0036410214657) rotate(0 47.831004334837985 -150.75250994274222)"><path d="M95.8 -276.78 C94.95 -282.62, 93.36 -289.16, 94.75 -301.76 M95.8 -276.78 C95.64 -287.08, 95.81 -296.55, 94.75 -301.76" stroke="#1e1e1e" stroke-width="1" fill="none"></path></g><g transform="translate(1398.6599478505766 858.0036410214657) rotate(0 47.831004334837985 -150.75250994274222)"><path d="M79.5 -281.95 C82.49 -286.65, 84.74 -291.96, 94.75 -301.76 M79.5 -281.95 C85.59 -290.1, 92.05 -297.57, 94.75 -301.76" stroke="#1e1e1e" stroke-width="1" fill="none"></path></g></g><mask id="mask-q4iTyORoy9q1NqhlpksQ0"><rect x="0" y="0" fill="#fff" width="1594.3219565202526" height="1259.5086609069501"></rect><rect x="1371.4470068729147" y="695.7511310787235" fill="#000" width="150.087890625" height="23" opacity="1"></rect></mask><g transform="translate(1371.4470068729147 695.7511310787235) rotate(0 74.7227329629286 10.728303377702844)"><text x="75.0439453125" y="18.400390625" font-family="Helvetica, Segoe UI Emoji" font-size="20px" fill="#1e1e1e" text-anchor="middle" style="white-space: pre;" direction="ltr" dominant-baseline="alphabetic">deposit collateral</text></g><g mask="url(#mask-iugY8NvSPhj8iV_AXMcQP)" stroke-linecap="round"><g transform="translate(1586.1594829978023 562.7869183670022) rotate(0 -57.051744100782685 189.70281951525112)"><path d="M-0.26 -0.04 C-19.33 63.04, -95.36 315.87, -114.34 379.25 M1.8 -1.11 C-17.46 62.1, -95.95 317.46, -115.41 380.71" stroke="#1e1e1e" stroke-width="1" fill="none"></path></g><g transform="translate(1586.1594829978023 562.7869183670022) rotate(0 -57.051744100782685 189.70281951525112)"><path d="M-116.68 355.74 C-116.2 363.05, -115.99 371.06, -115.41 380.71 M-116.68 355.74 C-116.32 364.97, -115.79 374.78, -115.41 380.71" stroke="#1e1e1e" stroke-width="1" fill="none"></path></g><g transform="translate(1586.1594829978023 562.7869183670022) rotate(0 -57.051744100782685 189.70281951525112)"><path d="M-100.33 360.77 C-104.92 366.49, -109.75 372.95, -115.41 380.71 M-100.33 360.77 C-106.13 367.97, -111.7 375.89, -115.41 380.71" stroke="#1e1e1e" stroke-width="1" fill="none"></path></g></g><mask id="mask-iugY8NvSPhj8iV_AXMcQP"><rect x="0" y="0" fill="#fff" width="1800.2629711993677" height="1042.1925573975045"></rect><rect x="1446.8518795220198" y="740.9897378822533" fill="#000" width="164.51171875" height="23" opacity="1"></rect></mask><g transform="translate(1446.8518795220198 740.9897378822533) rotate(0 82.50463317187484 11.599948954563558)"><text x="82.255859375" y="18.400390625" font-family="Helvetica, Segoe UI Emoji" font-size="20px" fill="#1e1e1e" text-anchor="middle" style="white-space: pre;" direction="ltr" dominant-baseline="alphabetic">withdraw collateral</text></g><g stroke-linecap="round"><g transform="translate(1460.291683210372 989.8151612834754) rotate(0 146.28178703165474 13.337128419732153)"><path d="M0.41 0.2 C49.01 4.96, 243.1 23.06, 291.93 27.63 M-0.83 -0.74 C48.13 3.78, 245.33 21.59, 294.31 26.02" stroke="#1e1e1e" stroke-width="1" fill="none"></path></g><g transform="translate(1460.291683210372 989.8151612834754) rotate(0 146.28178703165474 13.337128419732153)"><path d="M270.14 32.42 C278.5 29.16, 287.74 29.45, 294.31 26.02 M270.14 32.42 C279.04 29.52, 288.63 28.13, 294.31 26.02" stroke="#1e1e1e" stroke-width="1" fill="none"></path></g><g transform="translate(1460.291683210372 989.8151612834754) rotate(0 146.28178703165474 13.337128419732153)"><path d="M271.68 15.39 C279.4 17.76, 288.13 23.66, 294.31 26.02 M271.68 15.39 C280 18.94, 289.01 24.02, 294.31 26.02" stroke="#1e1e1e" stroke-width="1" fill="none"></path></g></g><mask></mask><g transform="translate(1627.3994194268475 1024.9948689446414) rotate(0 171.748046875 23)"><text x="171.748046875" y="18.400390625" font-family="Helvetica, Segoe UI Emoji" font-size="20px" fill="#1e1e1e" text-anchor="middle" style="white-space: pre;" direction="ltr" dominant-baseline="alphabetic">deposit other assets and </text><text x="171.748046875" y="41.400390625" font-family="Helvetica, Segoe UI Emoji" font-size="20px" fill="#1e1e1e" text-anchor="middle" style="white-space: pre;" direction="ltr" dominant-baseline="alphabetic">convert into vfrax to deposit as margin </text></g></svg>